<?xml version="1.0" encoding="utf-8"?>
<!-- Generator: Adobe Illustrator 26.5.0, SVG Export Plug-In . SVG Version: 6.00 Build 0)  -->
<svg width="400" height="400" version="1.1" id="Layer_1" xmlns="http://www.w3.org/2000/svg" xmlns:xlink="http://www.w3.org/1999/xlink" x="0px" y="0px"
	 viewBox="0 0 1920 1920" style="enable-background:new 0 0 1920 1920;" xml:space="preserve">
<style type="text/css">
	.st0{fill:#006666;}
</style>
<g>
	<path class="st0" d="M962.55,1168.45c263.29,0,476.72-213.44,476.72-476.72S1225.83,215,962.55,215
		c-176.19,0-329.48,94.93-411.99,237.08c-0.09,0.16-1.2-0.09,2.86,0c4.05,0.09,135.94,0,135.94,0l174.95,439.06l174.95-439.54
		l204.52,0.95l-204.52,484.35l-94.39,223.35l-2.86,7.38C942.02,1167.64,956.87,1168.45,962.55,1168.45"/>
	<path class="st0" d="M517,523.35l256.47,606.99c0,0-175.08-57.28-257.43-263.46C440.73,678.3,517,523.35,517,523.35"/>
	<path class="st0" d="M1812.93,1362.77H1657.8v272.63h155.12v-60.03h-84.25v-47h79.55v-60.02h-79.55v-45.56h84.25V1362.77z
		 M1538.85,1523.68c19.52-4.58,34.28-13.31,44.3-26.21c10-12.89,15-29.71,15-50.45c0-11.57-1.87-22.41-5.61-32.54
		c-3.74-10.12-9.28-19.04-16.63-26.75c-7.35-7.71-16.69-13.8-28.02-18.26c-11.33-4.46-24.59-6.69-39.78-6.69h-110.28v272.63h70.87
		v-104.86l67.61,104.86h88.23L1538.85,1523.68z M1468.7,1417.37h13.38c13.98,0,24.7,2.89,32.18,8.67
		c7.47,5.79,11.21,14.1,11.21,24.95s-3.74,19.16-11.21,24.94c-7.48,5.79-18.2,8.68-32.18,8.68h-13.38V1417.37z M1348.3,1422.79
		v-60.02H1161v60.02h58.21v212.61h70.87v-212.61H1348.3z M1125.56,1377.24c-13.5-7.23-27.6-12.71-42.3-16.45
		c-14.71-3.74-28.81-5.61-42.3-5.61c-14.46,0-27.54,2.17-39.24,6.51c-11.69,4.34-21.57,10.43-29.65,18.26
		c-8.08,7.83-14.35,17.23-18.8,28.2c-4.46,10.97-6.69,23.21-6.69,36.7c0,13.5,2.1,24.65,6.33,33.45c4.22,8.8,9.76,16.09,16.63,21.88
		c6.88,5.78,14.71,10.43,23.51,13.92c8.8,3.5,17.77,6.69,26.94,9.58c7.71,2.66,14.28,5.06,19.7,7.24c5.42,2.17,9.82,4.52,13.2,7.05
		c3.37,2.53,5.79,5.3,7.24,8.31c1.45,3.02,2.17,6.57,2.17,10.67c0,6.75-2.83,12.78-8.49,18.08c-5.67,5.3-14.28,7.96-25.85,7.96
		c-10.13,0-20.38-2.28-30.73-6.87c-10.37-4.58-20.85-11.57-31.46-20.97l-30.37,57.13c29.4,20.49,61.34,30.73,95.82,30.73
		c16.63,0,31.52-2.23,44.66-6.69c13.13-4.46,24.23-10.72,33.26-18.8c9.04-8.08,15.91-17.78,20.61-29.11
		c4.7-11.33,7.05-23.98,7.05-37.96c0-20.73-5.37-37.55-16.09-50.45c-10.72-12.89-27.66-23.19-50.8-30.91
		c-5.79-1.92-11.63-3.73-17.54-5.42c-5.91-1.68-11.21-3.68-15.91-5.97c-4.7-2.28-8.49-5-11.39-8.14c-2.89-3.13-4.34-7.11-4.34-11.93
		c0-6.99,2.89-12.66,8.68-17c5.78-4.34,13.25-6.51,22.42-6.51c7.23,0,14.7,1.51,22.42,4.52c7.7,3.01,15.42,7.65,23.14,13.92
		L1125.56,1377.24z M685.52,1635.41v-166.69l130.89,166.69h70.51v-272.63h-70.51v166.69l-130.89-166.69h-70.87v272.63H685.52z
		 M560.06,1362.77H404.94v272.63h155.12v-60.03h-84.24v-47h79.54v-60.02h-79.54v-45.56h84.24V1362.77z M86.75,1362.77l114.62,272.63
		h56.41l114.99-272.63h-77.02l-66.17,165.96l-65.81-165.96H86.75z"/>
</g>
</svg>
